# xmcd
#
# Track frame offsets:
# 150
# 19312
# 39329
# 57243
# 75007
# 94016
# 114125
# 128253
# 147603
# 165898
# 188530
# 206267
# 225197
# 243108
# 257266
#
# Disc length: 3665 seconds
#
#
# Revision: 0
# Processed by: cddbd v1.5.2PL0 Copyright (c) Steve Scherf et al.
# Submitted via: FreeRIP 2.95 
#
DISCID=990e4f0f
DTITLE=Marcos Paulo - Cristo vive em mim
DYEAR=2009
DGENRE=gospel
TTITLE0=Minha Esperença
TTITLE1=Criste vive em Mim
TTITLE2=Minha alegria
TTITLE3=Salvador
TTITLE4=Pedras Preciosas
TTITLE5=Exaltado pra sempre
TTITLE6=Nosso Redentor
TTITLE7=Meu Propósito
TTITLE8=Tu és o Senhor
TTITLE9=Vencendo vem Jesus
TTITLE10=O Meu Deus
TTITLE11=Meu Pfropóstito - Play Back
TTITLE12=Minha Alegria - Play Back
TTITLE13=Nosso Redentor - Play Back
TTITLE14=O meu Deus - Play Back
EXTD=
EXTT0=
EXTT1=
EXTT2=
EXTT3=
EXTT4=
EXTT5=
EXTT6=
EXTT7=
EXTT8=
EXTT9=
EXTT10=
EXTT11=
EXTT12=
EXTT13=
EXTT14=
PLAYORDER=
